<svg width="205" height="205" viewBox="0 0 205 205" fill="none" xmlns="http://www.w3.org/2000/svg">
<path d="M22.7002 69.5283V135.266C22.7002 143.398 27.0383 150.92 34.086 154.983L91.0148 187.855C94.4762 189.855 98.4031 190.908 102.401 190.908C106.398 190.908 110.325 189.855 113.786 187.855L170.715 154.983C174.176 152.985 177.051 150.111 179.049 146.649C181.048 143.188 182.1 139.262 182.1 135.265V69.5286C182.1 61.3932 177.762 53.8727 170.715 49.8082L113.786 16.9437C110.325 14.9436 106.398 13.8906 102.4 13.8906C98.4029 13.8906 94.476 14.9436 91.0148 16.9437L34.086 49.8082C30.6242 51.8066 27.7495 54.6812 25.7509 58.1429C23.7522 61.6046 22.7001 65.5314 22.7002 69.5286V69.5283Z" fill="url(#paint0_linear_136_4)"/>
<g filter="url(#filter0_ddddd_136_4)">
<path d="M62.3852 91.0761V113.85C62.3839 114.598 62.5303 115.339 62.816 116.031C63.1017 116.722 63.521 117.35 64.0501 117.879C64.5791 118.408 65.2073 118.828 65.8988 119.113C66.5903 119.399 67.3313 119.545 68.0795 119.544C68.8274 119.545 69.568 119.398 70.2591 119.112C70.9501 118.826 71.578 118.406 72.1069 117.877C72.6357 117.348 73.0551 116.721 73.3412 116.029C73.6272 115.338 73.7741 114.598 73.7737 113.85C73.7737 112.34 74.3735 110.892 75.441 109.825C76.5086 108.757 77.9565 108.157 79.4663 108.157C80.9761 108.157 82.424 108.757 83.4916 109.825C84.5591 110.892 85.1589 112.34 85.1589 113.85C85.1589 118.38 83.3595 122.724 80.1564 125.927C76.9534 129.13 72.6092 130.929 68.0795 130.929C63.5497 130.929 59.2055 129.13 56.0025 125.927C52.7994 122.724 51 118.38 51 113.85V91.0795C51 86.5497 52.7994 82.2055 56.0025 79.0025C59.2055 75.7995 63.5497 74 68.0795 74C72.6092 74 76.9534 75.7995 80.1564 79.0025C83.3595 82.2055 85.1589 86.5497 85.1589 91.0795C85.1589 92.5892 84.5591 94.0372 83.4916 95.1047C82.424 96.1723 80.9761 96.7721 79.4663 96.7721C77.9565 96.7721 76.5086 96.1723 75.441 95.1047C74.3735 94.0372 73.7737 92.5892 73.7737 91.0795C73.7737 89.5697 73.174 88.1218 72.1064 87.0542C71.0388 85.9866 69.5909 85.3868 68.0811 85.3868C66.5713 85.3868 65.1234 85.9866 64.0558 87.0542C62.9883 88.1218 62.3885 89.5697 62.3885 91.0795L62.3852 91.0761ZM153.473 113.85C153.474 114.598 153.328 115.339 153.042 116.03C152.756 116.721 152.336 117.349 151.808 117.878C151.279 118.407 150.651 118.827 149.959 119.112C149.268 119.398 148.527 119.545 147.779 119.544H142.085V125.235C142.085 126.747 141.487 128.195 140.417 129.262C139.889 129.791 139.262 130.212 138.571 130.499C137.881 130.786 137.14 130.933 136.392 130.933C135.644 130.933 134.904 130.786 134.213 130.499C133.522 130.212 132.895 129.791 132.367 129.262C131.301 128.193 130.701 126.745 130.7 125.235V119.544H119.314V125.235C119.316 125.983 119.17 126.725 118.885 127.416C118.599 128.108 118.18 128.736 117.651 129.265C117.121 129.795 116.493 130.214 115.801 130.499C115.11 130.785 114.368 130.931 113.62 130.929C112.872 130.931 112.131 130.784 111.44 130.498C110.749 130.213 110.121 129.793 109.592 129.264C109.063 128.735 108.644 128.107 108.359 127.415C108.074 126.724 107.928 125.983 107.929 125.235V119.544H102.232C100.722 119.544 99.274 118.944 98.2064 117.877C97.1389 116.809 96.5391 115.361 96.5391 113.852C96.5391 112.342 97.1389 110.894 98.2064 109.826C99.274 108.759 100.722 108.159 102.232 108.159H107.926V96.7737H102.232C100.722 96.7737 99.274 96.174 98.2064 95.1064C97.1389 94.0388 96.5391 92.5909 96.5391 91.0811C96.5391 89.5714 97.1389 88.1234 98.2064 87.0558C99.274 85.9883 100.722 85.3885 102.232 85.3885H107.926V79.6942C107.926 78.1845 108.526 76.7366 109.593 75.669C110.661 74.6014 112.109 74.0017 113.619 74.0017C115.128 74.0017 116.576 74.6014 117.644 75.669C118.711 76.7366 119.311 78.1845 119.311 79.6942V85.3852H130.696V79.6942C130.696 78.1845 131.296 76.7366 132.364 75.669C133.431 74.6014 134.879 74.0017 136.389 74.0017C137.899 74.0017 139.347 74.6014 140.414 75.669C141.482 76.7366 142.082 78.1845 142.082 79.6942V85.3852H147.776C149.284 85.3852 150.733 85.9832 151.799 87.0529C152.329 87.5808 152.749 88.208 153.036 88.8987C153.323 89.5894 153.471 90.3299 153.471 91.0778C153.471 91.8257 153.323 92.5662 153.036 93.2569C152.749 93.9476 152.329 94.5748 151.799 95.1026C151.271 95.6319 150.644 96.0519 149.954 96.3387C149.263 96.6254 148.523 96.7732 147.776 96.7737H142.082V108.159H147.776C149.284 108.162 150.73 108.763 151.797 109.829C152.864 110.896 153.469 112.341 153.473 113.85ZM130.7 96.7737H119.314V108.159H130.7V96.7737Z" fill="white"/>
</g>
<defs>
<filter id="filter0_ddddd_136_4" x="31.0668" y="60.7178" width="142.34" height="139.982" filterUnits="userSpaceOnUse" color-interpolation-filters="sRGB">
<feFlood flood-opacity="0" result="BackgroundImageFix"/>
<feColorMatrix in="SourceAlpha" type="matrix" values="0 0 0 0 0 0 0 0 0 0 0 0 0 0 0 0 0 0 127 0" result="hardAlpha"/>
<feOffset/>
<feColorMatrix type="matrix" values="0 0 0 0 0 0 0 0 0 0 0 0 0 0 0 0 0 0 0.1 0"/>
<feBlend mode="normal" in2="BackgroundImageFix" result="effect1_dropShadow_136_4"/>
<feColorMatrix in="SourceAlpha" type="matrix" values="0 0 0 0 0 0 0 0 0 0 0 0 0 0 0 0 0 0 127 0" result="hardAlpha"/>
<feOffset dy="3.3222"/>
<feGaussianBlur stdDeviation="8.30219"/>
<feColorMatrix type="matrix" values="0 0 0 0 0 0 0 0 0 0 0 0 0 0 0 0 0 0 0.1 0"/>
<feBlend mode="normal" in2="effect1_dropShadow_136_4" result="effect2_dropShadow_136_4"/>
<feColorMatrix in="SourceAlpha" type="matrix" values="0 0 0 0 0 0 0 0 0 0 0 0 0 0 0 0 0 0 127 0" result="hardAlpha"/>
<feOffset dy="13.2888"/>
<feGaussianBlur stdDeviation="6.64441"/>
<feColorMatrix type="matrix" values="0 0 0 0 0 0 0 0 0 0 0 0 0 0 0 0 0 0 0.09 0"/>
<feBlend mode="normal" in2="effect2_dropShadow_136_4" result="effect3_dropShadow_136_4"/>
<feColorMatrix in="SourceAlpha" type="matrix" values="0 0 0 0 0 0 0 0 0 0 0 0 0 0 0 0 0 0 127 0" result="hardAlpha"/>
<feOffset dy="29.8998"/>
<feGaussianBlur stdDeviation="8.30551"/>
<feColorMatrix type="matrix" values="0 0 0 0 0 0 0 0 0 0 0 0 0 0 0 0 0 0 0.05 0"/>
<feBlend mode="normal" in2="effect3_dropShadow_136_4" result="effect4_dropShadow_136_4"/>
<feColorMatrix in="SourceAlpha" type="matrix" values="0 0 0 0 0 0 0 0 0 0 0 0 0 0 0 0 0 0 127 0" result="hardAlpha"/>
<feOffset dy="49.8331"/>
<feGaussianBlur stdDeviation="9.96661"/>
<feColorMatrix type="matrix" values="0 0 0 0 0 0 0 0 0 0 0 0 0 0 0 0 0 0 0.01 0"/>
<feBlend mode="normal" in2="effect4_dropShadow_136_4" result="effect5_dropShadow_136_4"/>
<feBlend mode="normal" in="SourceGraphic" in2="effect5_dropShadow_136_4" result="shape"/>
</filter>
<linearGradient id="paint0_linear_136_4" x1="38.3545" y1="52.586" x2="115.21" y2="186.371" gradientUnits="userSpaceOnUse">
<stop/>
<stop offset="1"/>
</linearGradient>
</defs>
</svg>
